{
	"asset":{
		"generator":"Khronos glTF Blender I/O v3.5.30",
		"version":"2.0"
	},
	"scene":0,
	"scenes":[
		{
			"name":"Scene",
			"nodes":[
				3
			]
		}
	],
	"nodes":[
		{
			"mesh":0,
			"name":"FrontCameraRing.001",
			"scale":[
				0,
				0,
				0
			],
			"translation":[
				-0.15479597449302673,
				19.5714054107666,
				-16.150962829589844
			]
		},
		{
			"mesh":1,
			"name":"Keyboard",
			"scale":[
				5.796425819396973,
				5.796426296234131,
				5.796426296234131
			],
			"translation":[
				-11.786105155944824,
				-0.1501765251159668,
				-8.300731658935547
			]
		},
		{
			"mesh":2,
			"name":"Top",
			"rotation":[
				0.7071068286895752,
				0,
				0,
				0.7071068286895752
			],
			"scale":[
				5.796425819396973,
				5.796426296234131,
				5.7164306640625
			],
			"translation":[
				0.007461806293576956,
				-0.47182607650756836,
				-10.412354469299316
			]
		},
		{
			"children":[
				0,
				1,
				2
			],
			"mesh":3,
			"name":"Macbook",
			"scale":[
				0.10340707749128342,
				0.10340708494186401,
				0.10340708494186401
			],
			"translation":[
				0,
				0.5194190144538879,
				0
			]
		}
	],
	"materials":[
		{
			"doubleSided":true,
			"name":"CameraRIngBlack.002",
			"pbrMetallicRoughness":{
				"baseColorFactor":[
					0.01850022003054619,
					0.01850022003054619,
					0.01850022003054619,
					1
				],
				"metallicFactor":0,
				"roughnessFactor":0.836363673210144
			}
		},
		{
			"doubleSided":true,
			"name":"Keyboard.001",
			"pbrMetallicRoughness":{
				"baseColorFactor":[
					0.00972121860831976,
					0.009721221402287483,
					0.009721221402287483,
					1
				],
				"metallicFactor":0
			}
		},
		{
			"doubleSided":true,
			"name":"Key",
			"pbrMetallicRoughness":{
				"baseColorFactor":[
					0.0099513353779912,
					0.0099513353779912,
					0.0099513353779912,
					1
				],
				"metallicFactor":0
			}
		},
		{
			"doubleSided":true,
			"name":"Touchbar",
			"pbrMetallicRoughness":{
				"baseColorFactor":[
					0.08437623083591461,
					0.08437623083591461,
					0.08437623083591461,
					1
				],
				"metallicFactor":0,
				"roughnessFactor":0
			}
		},
		{
			"doubleSided":true,
			"name":"Frame.002",
			"pbrMetallicRoughness":{
				"baseColorFactor":[
					0.27065497636795044,
					0.27065497636795044,
					0.27065497636795044,
					1
				],
				"metallicFactor":0.33181819319725037,
				"roughnessFactor":0.29999998211860657
			}
		},
		{
			"doubleSided":true,
			"name":"Screen",
			"pbrMetallicRoughness":{}
		},
		{
			"doubleSided":true,
			"name":"ScreenGlass",
			"pbrMetallicRoughness":{
				"baseColorFactor":[
					0.009134061634540558,
					0.009134061634540558,
					0.009134061634540558,
					1
				],
				"metallicFactor":0,
				"roughnessFactor":0
			}
		},
		{
			"doubleSided":true,
			"name":"Rubber",
			"pbrMetallicRoughness":{
				"baseColorFactor":[
					0.15702541172504425,
					0.15702541172504425,
					0.15702541172504425,
					1
				],
				"metallicFactor":0,
				"roughnessFactor":0.16818180680274963
			}
		},
		{
			"doubleSided":true,
			"name":"DisplayGlass",
			"pbrMetallicRoughness":{
				"baseColorFactor":[
					0.006048833951354027,
					0.006048833951354027,
					0.008023192174732685,
					1
				],
				"metallicFactor":0,
				"roughnessFactor":0
			}
		},
		{
			"doubleSided":true,
			"name":"Frame.001",
			"pbrMetallicRoughness":{
				"baseColorFactor":[
					0.27065497636795044,
					0.27065497636795044,
					0.27065497636795044,
					1
				],
				"metallicFactor":0.33181819319725037,
				"roughnessFactor":0.29999998211860657
			}
		},
		{
			"doubleSided":true,
			"name":"HeadPhoneHole",
			"pbrMetallicRoughness":{
				"baseColorFactor":[
					0.003566997591406107,
					0.003566997591406107,
					0.003566997591406107,
					1
				],
				"roughnessFactor":0
			}
		},
		{
			"doubleSided":true,
			"name":"USB_C_INSIDE",
			"pbrMetallicRoughness":{
				"baseColorFactor":[
					0,
					0,
					0,
					1
				],
				"metallicFactor":0.5409091114997864,
				"roughnessFactor":0.34545454382896423
			}
		},
		{
			"doubleSided":true,
			"name":"Keyboard",
			"pbrMetallicRoughness":{
				"baseColorFactor":[
					0.010212934575974941,
					0.010212934575974941,
					0.010212934575974941,
					1
				],
				"metallicFactor":0,
				"roughnessFactor":0.913636326789856
			}
		}
	],
	"meshes":[
		{
			"name":"Circle.039",
			"primitives":[
				{
					"attributes":{
						"POSITION":0,
						"NORMAL":1
					},
					"indices":2,
					"material":0
				}
			]
		},
		{
			"name":"Circle",
			"primitives":[
				{
					"attributes":{
						"POSITION":3,
						"NORMAL":4
					},
					"indices":5,
					"material":1
				},
				{
					"attributes":{
						"POSITION":6,
						"NORMAL":7
					},
					"indices":8,
					"material":2
				},
				{
					"attributes":{
						"POSITION":9,
						"NORMAL":10
					},
					"indices":11,
					"material":3
				}
			]
		},
		{
			"name":"Circle.002",
			"primitives":[
				{
					"attributes":{
						"COLOR_0":12,
						"POSITION":13,
						"NORMAL":14
					},
					"indices":15,
					"material":4
				},
				{
					"attributes":{
						"COLOR_0":16,
						"POSITION":17,
						"NORMAL":18
					},
					"indices":19,
					"material":5
				},
				{
					"attributes":{
						"COLOR_0":20,
						"POSITION":21,
						"NORMAL":22
					},
					"indices":23,
					"material":6
				},
				{
					"attributes":{
						"COLOR_0":24,
						"POSITION":25,
						"NORMAL":26
					},
					"indices":27,
					"material":7
				},
				{
					"attributes":{
						"COLOR_0":28,
						"POSITION":29,
						"NORMAL":30
					},
					"indices":31,
					"material":8
				}
			]
		},
		{
			"name":"Circle.001",
			"primitives":[
				{
					"attributes":{
						"POSITION":32,
						"NORMAL":33
					},
					"indices":34,
					"material":9
				},
				{
					"attributes":{
						"POSITION":35,
						"NORMAL":36
					},
					"indices":37,
					"material":10
				},
				{
					"attributes":{
						"POSITION":38,
						"NORMAL":39
					},
					"indices":40,
					"material":11
				},
				{
					"attributes":{
						"POSITION":41,
						"NORMAL":42
					},
					"indices":43,
					"material":12
				}
			]
		}
	],
	"accessors":[
		{
			"bufferView":0,
			"componentType":5126,
			"count":320,
			"max":[
				0.03477345034480095,
				0.033600445836782455,
				0.008932463824748993
			],
			"min":[
				-0.03477345034480095,
				-0.03360217437148094,
				-0.011350633576512337
			],
			"type":"VEC3"
		},
		{
			"bufferView":1,
			"componentType":5126,
			"count":320,
			"type":"VEC3"
		},
		{
			"bufferView":2,
			"componentType":5123,
			"count":1536,
			"type":"SCALAR"
		},
		{
			"bufferView":3,
			"componentType":5126,
			"count":9155,
			"max":[
				4.06872034072876,
				0.03306944668292999,
				1.547929048538208
			],
			"min":[
				-0.012039256282150745,
				0.019114725291728973,
				0.19033387303352356
			],
			"type":"VEC3"
		},
		{
			"bufferView":4,
			"componentType":5126,
			"count":9155,
			"type":"VEC3"
		},
		{
			"bufferView":5,
			"componentType":5123,
			"count":41148,
			"type":"SCALAR"
		},
		{
			"bufferView":6,
			"componentType":5126,
			"count":4579,
			"max":[
				4.0639777183532715,
				0.0332644097507,
				1.544886589050293
			],
			"min":[
				-0.007296337280422449,
				0.03127551078796387,
				0.19442488253116608
			],
			"type":"VEC3"
		},
		{
			"bufferView":7,
			"componentType":5126,
			"count":4579,
			"type":"VEC3"
		},
		{
			"bufferView":8,
			"componentType":5123,
			"count":20202,
			"type":"SCALAR"
		},
		{
			"bufferView":9,
			"componentType":5126,
			"count":275,
			"max":[
				4.06651496887207,
				0.03275521844625473,
				1.4374210834503174
			],
			"min":[
				-0.010572155937552452,
				0.018813055008649826,
				-0.010572155937552452
			],
			"type":"VEC3"
		},
		{
			"bufferView":10,
			"componentType":5126,
			"count":275,
			"type":"VEC3"
		},
		{
			"bufferView":11,
			"componentType":5123,
			"count":1434,
			"type":"SCALAR"
		},
		{
			"bufferView":12,
			"componentType":5123,
			"count":9290,
			"normalized":true,
			"type":"VEC4"
		},
		{
			"bufferView":13,
			"componentType":5126,
			"count":9290,
			"max":[
				2.623859405517578,
				0.04337359219789505,
				-0.00037670135498046875
			],
			"min":[
				-2.624021053314209,
				-0.11044801026582718,
				-3.6920950412750244
			],
			"type":"VEC3"
		},
		{
			"bufferView":14,
			"componentType":5126,
			"count":9290,
			"type":"VEC3"
		},
		{
			"bufferView":15,
			"componentType":5123,
			"count":54768,
			"type":"SCALAR"
		},
		{
			"bufferView":16,
			"componentType":5123,
			"count":1580,
			"normalized":true,
			"type":"VEC4"
		},
		{
			"bufferView":17,
			"componentType":5126,
			"count":1580,
			"max":[
				2.613457202911377,
				-0.0632576197385788,
				-0.008458852767944336
			],
			"min":[
				-2.613618850708008,
				-0.0632576197385788,
				-3.6829886436462402
			],
			"type":"VEC3"
		},
		{
			"bufferView":18,
			"componentType":5126,
			"count":1580,
			"type":"VEC3"
		},
		{
			"bufferView":19,
			"componentType":5123,
			"count":8112,
			"type":"SCALAR"
		},
		{
			"bufferView":20,
			"componentType":5123,
			"count":1014,
			"normalized":true,
			"type":"VEC4"
		},
		{
			"bufferView":21,
			"componentType":5126,
			"count":1014,
			"max":[
				2.6097185611724854,
				-0.061835672706365585,
				-0.010176897048950195
			],
			"min":[
				-2.609880208969116,
				-0.09243419766426086,
				-3.679450035095215
			],
			"type":"VEC3"
		},
		{
			"bufferView":22,
			"componentType":5126,
			"count":1014,
			"type":"VEC3"
		},
		{
			"bufferView":23,
			"componentType":5123,
			"count":3186,
			"type":"SCALAR"
		},
		{
			"bufferView":24,
			"componentType":5123,
			"count":605,
			"normalized":true,
			"type":"VEC4"
		},
		{
			"bufferView":25,
			"componentType":5126,
			"count":605,
			"max":[
				2.6083192825317383,
				-0.0632576197385788,
				-0.061623573303222656
			],
			"min":[
				-2.608480930328369,
				-0.0632576197385788,
				-3.677959442138672
			],
			"type":"VEC3"
		},
		{
			"bufferView":26,
			"componentType":5126,
			"count":605,
			"type":"VEC3"
		},
		{
			"bufferView":27,
			"componentType":5123,
			"count":2112,
			"type":"SCALAR"
		},
		{
			"bufferView":28,
			"componentType":5123,
			"count":10,
			"normalized":true,
			"type":"VEC4"
		},
		{
			"bufferView":29,
			"componentType":5126,
			"count":10,
			"max":[
				2.5044922828674316,
				-0.06325831264257431,
				-0.3593101501464844
			],
			"min":[
				-2.506856918334961,
				-0.06325831264257431,
				-3.466003894805908
			],
			"type":"VEC3"
		},
		{
			"bufferView":30,
			"componentType":5126,
			"count":10,
			"type":"VEC3"
		},
		{
			"bufferView":31,
			"componentType":5123,
			"count":24,
			"type":"SCALAR"
		},
		{
			"bufferView":32,
			"componentType":5126,
			"count":1950,
			"max":[
				15.209824562072754,
				0.03396787494421005,
				10.701034545898438
			],
			"min":[
				-15.211496353149414,
				-0.5749645233154297,
				-10.706782341003418
			],
			"type":"VEC3"
		},
		{
			"bufferView":33,
			"componentType":5126,
			"count":1950,
			"type":"VEC3"
		},
		{
			"bufferView":34,
			"componentType":5123,
			"count":7395,
			"type":"SCALAR"
		},
		{
			"bufferView":35,
			"componentType":5126,
			"count":4,
			"max":[
				14.553827285766602,
				-0.06794486939907074,
				-8.810534477233887
			],
			"min":[
				14.553827285766602,
				-0.3712039887905121,
				-9.119976043701172
			],
			"type":"VEC3"
		},
		{
			"bufferView":36,
			"componentType":5126,
			"count":4,
			"type":"VEC3"
		},
		{
			"bufferView":37,
			"componentType":5123,
			"count":6,
			"type":"SCALAR"
		},
		{
			"bufferView":38,
			"componentType":5126,
			"count":43,
			"max":[
				15.208521842956543,
				-0.09673967957496643,
				-6.039404392242432
			],
			"min":[
				-15.208062171936035,
				-0.364203542470932,
				-8.758620262145996
			],
			"type":"VEC3"
		},
		{
			"bufferView":39,
			"componentType":5126,
			"count":43,
			"type":"VEC3"
		},
		{
			"bufferView":40,
			"componentType":5123,
			"count":75,
			"type":"SCALAR"
		},
		{
			"bufferView":41,
			"componentType":5126,
			"count":1971,
			"max":[
				11.488962173461914,
				-0.0736803188920021,
				-0.14790916442871094
			],
			"min":[
				-11.496466636657715,
				-0.0854375809431076,
				-7.9782395362854
			],
			"type":"VEC3"
		},
		{
			"bufferView":42,
			"componentType":5126,
			"count":1971,
			"type":"VEC3"
		},
		{
			"bufferView":43,
			"componentType":5123,
			"count":3135,
			"type":"SCALAR"
		}
	],
	"bufferViews":[
		{
			"buffer":0,
			"byteLength":3840,
			"byteOffset":0,
			"target":34962
		},
		{
			"buffer":0,
			"byteLength":3840,
			"byteOffset":3840,
			"target":34962
		},
		{
			"buffer":0,
			"byteLength":3072,
			"byteOffset":7680,
			"target":34963
		},
		{
			"buffer":0,
			"byteLength":109860,
			"byteOffset":10752,
			"target":34962
		},
		{
			"buffer":0,
			"byteLength":109860,
			"byteOffset":120612,
			"target":34962
		},
		{
			"buffer":0,
			"byteLength":82296,
			"byteOffset":230472,
			"target":34963
		},
		{
			"buffer":0,
			"byteLength":54948,
			"byteOffset":312768,
			"target":34962
		},
		{
			"buffer":0,
			"byteLength":54948,
			"byteOffset":367716,
			"target":34962
		},
		{
			"buffer":0,
			"byteLength":40404,
			"byteOffset":422664,
			"target":34963
		},
		{
			"buffer":0,
			"byteLength":3300,
			"byteOffset":463068,
			"target":34962
		},
		{
			"buffer":0,
			"byteLength":3300,
			"byteOffset":466368,
			"target":34962
		},
		{
			"buffer":0,
			"byteLength":2868,
			"byteOffset":469668,
			"target":34963
		},
		{
			"buffer":0,
			"byteLength":74320,
			"byteOffset":472536,
			"target":34962
		},
		{
			"buffer":0,
			"byteLength":111480,
			"byteOffset":546856,
			"target":34962
		},
		{
			"buffer":0,
			"byteLength":111480,
			"byteOffset":658336,
			"target":34962
		},
		{
			"buffer":0,
			"byteLength":109536,
			"byteOffset":769816,
			"target":34963
		},
		{
			"buffer":0,
			"byteLength":12640,
			"byteOffset":879352,
			"target":34962
		},
		{
			"buffer":0,
			"byteLength":18960,
			"byteOffset":891992,
			"target":34962
		},
		{
			"buffer":0,
			"byteLength":18960,
			"byteOffset":910952,
			"target":34962
		},
		{
			"buffer":0,
			"byteLength":16224,
			"byteOffset":929912,
			"target":34963
		},
		{
			"buffer":0,
			"byteLength":8112,
			"byteOffset":946136,
			"target":34962
		},
		{
			"buffer":0,
			"byteLength":12168,
			"byteOffset":954248,
			"target":34962
		},
		{
			"buffer":0,
			"byteLength":12168,
			"byteOffset":966416,
			"target":34962
		},
		{
			"buffer":0,
			"byteLength":6372,
			"byteOffset":978584,
			"target":34963
		},
		{
			"buffer":0,
			"byteLength":4840,
			"byteOffset":984956,
			"target":34962
		},
		{
			"buffer":0,
			"byteLength":7260,
			"byteOffset":989796,
			"target":34962
		},
		{
			"buffer":0,
			"byteLength":7260,
			"byteOffset":997056,
			"target":34962
		},
		{
			"buffer":0,
			"byteLength":4224,
			"byteOffset":1004316,
			"target":34963
		},
		{
			"buffer":0,
			"byteLength":80,
			"byteOffset":1008540,
			"target":34962
		},
		{
			"buffer":0,
			"byteLength":120,
			"byteOffset":1008620,
			"target":34962
		},
		{
			"buffer":0,
			"byteLength":120,
			"byteOffset":1008740,
			"target":34962
		},
		{
			"buffer":0,
			"byteLength":48,
			"byteOffset":1008860,
			"target":34963
		},
		{
			"buffer":0,
			"byteLength":23400,
			"byteOffset":1008908,
			"target":34962
		},
		{
			"buffer":0,
			"byteLength":23400,
			"byteOffset":1032308,
			"target":34962
		},
		{
			"buffer":0,
			"byteLength":14790,
			"byteOffset":1055708,
			"target":34963
		},
		{
			"buffer":0,
			"byteLength":48,
			"byteOffset":1070500,
			"target":34962
		},
		{
			"buffer":0,
			"byteLength":48,
			"byteOffset":1070548,
			"target":34962
		},
		{
			"buffer":0,
			"byteLength":12,
			"byteOffset":1070596,
			"target":34963
		},
		{
			"buffer":0,
			"byteLength":516,
			"byteOffset":1070608,
			"target":34962
		},
		{
			"buffer":0,
			"byteLength":516,
			"byteOffset":1071124,
			"target":34962
		},
		{
			"buffer":0,
			"byteLength":150,
			"byteOffset":1071640,
			"target":34963
		},
		{
			"buffer":0,
			"byteLength":23652,
			"byteOffset":1071792,
			"target":34962
		},
		{
			"buffer":0,
			"byteLength":23652,
			"byteOffset":1095444,
			"target":34962
		},
		{
			"buffer":0,
			"byteLength":6270,
			"byteOffset":1119096,
			"target":34963
		}
	],
	"buffers":[
		{
			"byteLength":1125368,
			"uri":"data:application/octet-stream;base64,"
		}
	]
}
