<svg xmlns="http://www.w3.org/2000/svg" width="13" height="13" viewBox="0 0 13 13" fill="none">
<path d="M12.1255 1.78033L12.6559 1.25L11.5952 0.18934L11.0649 0.71967L12.1255 1.78033ZM1.06488 10.7197L0.534555 11.25L1.59521 12.3107L2.12554 11.7803L1.06488 10.7197ZM11.0649 0.71967L1.06488 10.7197L2.12554 11.7803L12.1255 1.78033L11.0649 0.71967Z" fill="currentColor"/>
<path d="M3.26172 0.5H2.51172V2H3.26172V0.5ZM11.5951 1.25H12.3451C12.3451 0.835786 12.0093 0.5 11.5951 0.5V1.25ZM10.8451 9.58333V10.3333H12.3451V9.58333H10.8451ZM3.26172 2H11.5951V0.5H3.26172V2ZM10.8451 1.25V9.58333H12.3451V1.25H10.8451Z" fill="currentColor"/>
</svg>