<svg width="326" height="278" viewBox="0 0 326 278" fill="none" xmlns="http://www.w3.org/2000/svg">
<path fill-rule="evenodd" clip-rule="evenodd" d="M3.39248 278C1.45424 278 0.253255 275.89 1.243 274.223L162.874 2.07942C163.837 0.457441 166.182 0.446051 167.161 2.05859L325.249 262.44C325.947 263.59 325.611 265.086 324.487 265.825L308.152 276.583C306.974 277.358 305.388 277.007 304.649 275.806L256.736 198.007C256.042 196.88 254.59 196.49 253.424 197.116L103.554 277.702C103.19 277.898 102.784 278 102.37 278H3.39248ZM37.3072 257.202C36.2951 258.868 37.4945 261 39.4438 261H86.85C87.2763 261 87.6954 260.891 88.0677 260.683L241.216 175.274C242.461 174.58 242.874 172.988 242.125 171.776L167.145 50.4703C166.164 48.8824 163.851 48.8913 162.882 50.4868L37.3072 257.202Z" fill="currentColor"/>
</svg>
