<svg width="271" height="241" viewBox="0 0 271 241" fill="none" xmlns="http://www.w3.org/2000/svg">
<path fill-rule="evenodd" clip-rule="evenodd" d="M100.454 0.5C98.6319 0.5 96.9539 1.49141 96.0746 3.08756L0.620489 176.374C0.213453 177.112 0 177.942 0 178.786V222.663C0 223.539 0.229967 224.399 0.666888 225.158L8.05763 237.995C8.95 239.545 10.6023 240.5 12.3907 240.5H90.3902C92.0254 240.5 93.5573 239.7 94.4922 238.359L103.602 225.288C104.187 224.45 104.5 223.452 104.5 222.429V27.5C104.5 24.7386 106.739 22.5 109.5 22.5H130.5C133.261 22.5 135.5 20.2614 135.5 17.5V5.5C135.5 2.73858 133.261 0.5 130.5 0.5H100.454ZM87.5 214C87.5 216.761 85.2614 219 82.5 219H22.5C19.7386 219 17.5 216.761 17.5 214V194.688C17.5 193.907 17.683 193.137 18.0343 192.439L78.0343 73.2962C80.4039 68.5908 87.5 70.2767 87.5 75.5451V214Z" fill="currentColor"/>
<path fill-rule="evenodd" clip-rule="evenodd" d="M170.546 0.5C172.368 0.5 174.046 1.49141 174.925 3.08756L270.38 176.374C270.787 177.112 271 177.942 271 178.786V222.663C271 223.539 270.77 224.399 270.333 225.158L262.942 237.995C262.05 239.545 260.398 240.5 258.609 240.5H180.61C178.975 240.5 177.443 239.7 176.508 238.359L167.398 225.288C166.813 224.45 166.5 223.452 166.5 222.429V27.5C166.5 24.7386 164.261 22.5 161.5 22.5H140.5C137.739 22.5 135.5 20.2614 135.5 17.5V5.5C135.5 2.73858 137.739 0.5 140.5 0.5H170.546ZM183.5 214C183.5 216.761 185.739 219 188.5 219H248.5C251.261 219 253.5 216.761 253.5 214V194.688C253.5 193.907 253.317 193.137 252.966 192.439L192.966 73.2962C190.596 68.5908 183.5 70.2767 183.5 75.5451V214Z" fill="currentColor"/>
<path d="M148 0.5H125V22.5H148V0.5Z" fill="currentColor"/>
</svg>
