<svg width="452" height="431" viewBox="0 0 452 431" fill="none" xmlns="http://www.w3.org/2000/svg">
<path d="M77.4951 431H10.7504C6.58479 431 4.24573 426.205 6.81004 422.922L223.56 145.445C226.487 141.698 232.5 143.768 232.5 148.523V225.338C232.5 226.417 232.151 227.467 231.505 228.331L81.4998 428.994C80.5558 430.256 79.0716 431 77.4951 431Z" fill="currentColor"/>
<path d="M331.313 8.55347L280.99 74.0603C280.05 75.2841 279.728 76.8736 280.117 78.367L371.026 427.261C371.6 429.463 373.588 431 375.864 431H445.496C448.78 431 451.172 427.888 450.328 424.715L340.11 10.3143C339.044 6.30511 333.841 5.26359 331.313 8.55347Z" fill="currentColor"/>
</svg>
