<svg width="452" height="408" viewBox="0 0 452 408" fill="none" xmlns="http://www.w3.org/2000/svg">
<path d="M77.0636 408H9.07656C5.24627 408 2.83841 403.87 4.72552 400.537L165.117 117.241C167.039 113.847 171.934 113.862 173.835 117.268L206.641 176.064C207.486 177.578 207.486 179.422 206.641 180.936L81.4303 405.435C80.5473 407.019 78.8764 408 77.0636 408Z" fill="currentColor"/>
<path d="M221.118 7.82124L187.358 68.0761C186.514 69.5835 186.507 71.4201 187.341 72.9334L370.574 405.413C371.454 407.009 373.132 408 374.953 408H443.505C447.317 408 449.727 403.906 447.877 400.573L229.851 7.83835C227.951 4.41516 223.032 4.40553 221.118 7.82124Z" fill="currentColor"/>
</svg>
