<svg width="293" height="284" viewBox="0 0 293 284" fill="none" xmlns="http://www.w3.org/2000/svg">
<path d="M262.914 284H200.5C199.119 284 198 282.881 198 281.5V269.5C198 268.119 199.119 267 200.5 267H250.947C251.898 267 252.767 266.46 253.188 265.608L273.741 224.024C273.911 223.679 274 223.3 274 222.916V51.3892C274 49.183 271.351 48.0583 269.763 49.5908L27.7266 283.298C27.2605 283.748 26.6379 284 25.99 284H6.17122C3.92511 284 2.81842 281.268 4.43123 279.705L288.76 4.10974C290.346 2.57264 293 3.69635 293 5.90486V222.941C293 223.309 292.919 223.673 292.762 224.006L265.176 282.565C264.763 283.441 263.882 284 262.914 284Z" fill="currentColor"/>
</svg>
