<svg width="188" height="240" viewBox="0 0 188 240" fill="none" xmlns="http://www.w3.org/2000/svg">
<path d="M122.053 0H78.889C78.0538 0 77.3066 0.518955 77.0149 1.30154L28.0057 132.802C27.5186 134.108 28.4851 135.5 29.8798 135.5H40.6326C55.523 135.5 68.7832 126.079 73.6833 112.018L97.8587 42.6445C98.5071 40.7841 101.171 40.883 101.68 42.7864L134.328 164.984C134.667 166.254 133.71 167.5 132.395 167.5H28.3894C27.554 167.5 26.8067 168.019 26.5151 168.802L1.00477 237.302C0.518099 238.609 1.48453 240 2.87902 240H11.6206C28.1255 240 42.9357 229.863 48.9091 214.477L55.0045 198.776C55.3032 198.007 56.0437 197.5 56.869 197.5H185.736C187.098 197.5 188.062 196.168 187.636 194.875L123.952 1.37476C123.682 0.55439 122.916 0 122.053 0Z" fill="currentColor"/>
</svg>
