<svg width="244" height="269" viewBox="0 0 244 269" fill="none" xmlns="http://www.w3.org/2000/svg">
<path d="M219.959 1.28076L1.20892 265.725C0.130274 267.029 1.05772 269 2.75 269H55.0628C55.6566 269 56.2197 268.736 56.5997 268.28L161.963 141.748C163.16 140.31 165.5 141.156 165.5 143.027V184.5C165.5 185.605 166.395 186.5 167.5 186.5H221.5C222.605 186.5 223.5 185.605 223.5 184.5V2.55556C223.5 0.681352 221.154 -0.163391 219.959 1.28076Z" fill="currentColor"/>
<path d="M222.238 225H171.302C169.8 225 168.834 226.595 169.53 227.927L190.439 267.927C190.784 268.586 191.467 269 192.211 269H241.329C242.8 269 243.768 267.466 243.134 266.139L224.043 226.139C223.711 225.443 223.009 225 222.238 225Z" fill="currentColor"/>
</svg>
