<svg width="244" height="270" viewBox="0 0 244 270" fill="none" xmlns="http://www.w3.org/2000/svg">
<path d="M188.21 1.44901L0.728023 266.846C-0.207816 268.171 0.739575 270 2.36154 270H54.947C55.6061 270 56.2229 269.675 56.5959 269.132L151.746 130.512C152.758 129.038 155.046 129.53 155.364 131.289L165.203 185.855C165.375 186.807 166.204 187.5 167.172 187.5H221.129C222.368 187.5 223.309 186.384 223.1 185.163L191.815 2.26579C191.515 0.50857 189.239 -0.00705457 188.21 1.44901Z" fill="currentColor"/>
<path d="M222.238 226H171.302C169.8 226 168.834 227.595 169.53 228.927L190.439 268.927C190.784 269.586 191.467 270 192.211 270H241.329C242.8 270 243.768 268.466 243.134 267.139L224.043 227.139C223.711 226.443 223.009 226 222.238 226Z" fill="currentColor"/>
</svg>
