<svg width="188" height="209" viewBox="0 0 188 209" fill="none" xmlns="http://www.w3.org/2000/svg">
<path d="M122.134 0H78.8946C78.0567 0 77.3076 0.522333 77.0179 1.30859L39.9916 101.809C39.5105 103.114 40.4768 104.5 41.8683 104.5H51.5742C66.9755 104.5 80.567 94.4323 85.0551 79.6995L98.6365 35.1171C99.2077 33.2421 101.855 33.2225 102.454 35.0887L134.162 133.889C134.576 135.18 133.613 136.5 132.258 136.5H28.3894C27.554 136.5 26.8067 137.019 26.5151 137.802L1.00477 206.302C0.518099 207.609 1.48453 209 2.87902 209H11.6206C28.1255 209 42.9357 198.863 48.9091 183.477L55.0045 167.776C55.3032 167.007 56.0437 166.5 56.869 166.5H185.572C186.98 166.5 187.947 165.084 187.435 163.773L123.997 1.27268C123.697 0.505213 122.958 0 122.134 0Z" fill="currentColor"/>
</svg>
