<svg width="263" height="259" viewBox="0 0 263 259" fill="none" xmlns="http://www.w3.org/2000/svg">
<path d="M130.236 1.96727L0.978468 256.093C0.301695 257.424 1.26833 259 2.76112 259H55.7424C56.5111 259 57.2118 258.559 57.5449 257.867L130.176 106.794C130.906 105.275 133.073 105.285 133.789 106.811L165.96 175.35C166.29 176.052 166.995 176.5 167.771 176.5H221.207C222.707 176.5 223.673 174.909 222.981 173.578L133.794 1.95176C133.043 0.507665 130.974 0.516694 130.236 1.96727Z" fill="currentColor"/>
<path d="M241.238 215H190.302C188.8 215 187.834 216.595 188.53 217.927L209.439 257.927C209.784 258.586 210.467 259 211.211 259H260.329C261.8 259 262.768 257.466 262.134 256.139L243.043 216.139C242.711 215.443 242.009 215 241.238 215Z" fill="currentColor"/>
</svg>
