<svg width="240" height="239" viewBox="0 0 240 239" fill="none" xmlns="http://www.w3.org/2000/svg">
<path d="M119.199 4.0434L1.47762 235.594C0.801168 236.924 1.76782 238.5 3.26044 238.5H29.2748C30.0266 238.5 30.715 238.078 31.0565 237.408L111.991 78.6689C115.72 71.3551 126.186 71.4021 129.85 78.7491L208.948 237.392C209.286 238.071 209.979 238.5 210.738 238.5H236.27C237.755 238.5 238.722 236.938 238.06 235.609L122.772 4.05836C122.039 2.58717 119.943 2.57839 119.199 4.0434Z" fill="currentColor"/>
<path d="M119.054 120.452L76.3705 163.593C75.1209 164.856 76.0156 167 77.7922 167H84.1378C84.6709 167 85.182 166.787 85.5575 166.409L113.312 138.436C117.255 134.463 123.69 134.499 127.588 138.516L154.636 166.393C155.013 166.781 155.531 167 156.072 167H162.277C164.044 167 164.943 164.877 163.714 163.608L121.912 120.467C121.132 119.662 119.842 119.655 119.054 120.452Z" fill="currentColor"/>
</svg>
