<svg width="188" height="240" viewBox="0 0 188 240" fill="none" xmlns="http://www.w3.org/2000/svg">
<path d="M35.4742 132.977L35.4783 132.966L35.482 132.954L77.4873 1.46584C77.7088 0.884645 78.2663 0.5 78.889 0.5H122.053C122.7 0.5 123.275 0.915673 123.477 1.53107L187.161 195.031L187.161 195.031C187.48 196.001 186.758 197 185.736 197H56.869C55.8374 197 54.9118 197.634 54.5384 198.595L55.0045 198.776L54.5384 198.595L48.443 214.296C42.5443 229.49 27.9192 239.5 11.6206 239.5H2.87902C1.83314 239.5 1.10832 238.457 1.47333 237.477L26.9837 168.977C27.2024 168.389 27.7628 168 28.3894 168H132.395C134.038 168 135.235 166.443 134.811 164.855L134.328 164.984L134.811 164.855L102.163 42.6573L102.163 42.6572C101.527 40.2783 98.1971 40.1543 97.3866 42.4799L97.3789 42.5018L97.3734 42.5243L80.2035 111.875C75.3674 125.723 62.3026 135 47.6326 135H36.8798C35.8337 135 35.109 133.956 35.4742 132.977Z" />
</svg>
