<svg width="240" height="236" viewBox="0 0 240 236" fill="none" xmlns="http://www.w3.org/2000/svg">
<path d="M118.214 3.51344L1.47788 233.094C0.801328 234.424 1.76798 236 3.26065 236H29.2686C30.0237 236 30.7144 235.575 31.0544 234.9L111.071 76.2086C114.767 68.8783 125.233 68.8783 128.929 76.2086L208.946 234.9C209.286 235.575 209.976 236 210.731 236H236.246C237.737 236 238.703 234.427 238.03 233.097L121.781 3.51644C121.041 2.05581 118.956 2.05405 118.214 3.51344Z" fill="currentColor"/>
<path d="M118.384 77.5238L39.4734 233.095C38.7985 234.426 39.7652 236 41.257 236H57.6524C58.4082 236 59.0995 235.574 59.4391 234.899L111.238 131.918C114.931 124.576 125.412 124.576 129.105 131.918L180.903 234.899C181.243 235.574 181.934 236 182.69 236H198.749C200.239 236 201.206 234.429 200.534 233.098L121.953 77.5268C121.214 76.0638 119.125 76.0621 118.384 77.5238Z" fill="currentColor"/>
</svg>
