<svg width="240" height="236" viewBox="0 0 240 236" fill="none" xmlns="http://www.w3.org/2000/svg">
<path d="M118.214 3.51344L1.47788 233.094C0.801328 234.424 1.76798 236 3.26065 236H29.2686C30.0237 236 30.7144 235.575 31.0544 234.9L111.071 76.2086C114.767 68.8783 125.233 68.8783 128.929 76.2086L208.946 234.9C209.286 235.575 209.976 236 210.731 236H236.246C237.737 236 238.703 234.427 238.03 233.097L121.781 3.51644C121.041 2.05581 118.956 2.05405 118.214 3.51344Z" fill="currentColor"/>
<path d="M118.304 112.527L77.4718 193.096C76.7976 194.426 77.7643 196 79.2558 196H85.9734C86.7295 196 87.421 195.574 87.7605 194.898L111.157 148.345C114.849 140.999 125.335 140.999 129.027 148.345L152.423 194.898C152.763 195.574 153.454 196 154.21 196H160.75C162.24 196 163.207 194.429 162.536 193.099L121.874 112.53C121.135 111.067 119.045 111.065 118.304 112.527Z" fill="currentColor"/>
</svg>
