<svg xmlns="http://www.w3.org/2000/svg" width="1686" height="837" viewBox="0 0 1686 837" fill="none"><g opacity=".5"><path d="M850.15 825.955s136.893 4.988 188.94-3.563c52.05-8.552 139.74-108.317 157.57-228.749 14.93-100.846-40.14-313.623-89.84-411.541" stroke="url(#dyyj986zna)" stroke-width="1.274"/><path d="M850.762 466.085s170.398.713 218.888.713c48.48 0 99.46 75.18 82.35 177.084-17.11 101.903-131.46 178.152-157.479 181.359-26.024 3.207-144.023.713-144.023.713" stroke="url(#o9wfm5edeb)" stroke-width="1.274"/><path d="M850.585 522.738h183.865c24.97 0 46.46 17.509 48.71 42.368 4.8 53.125 4.14 143.266-45.77 193.15-73.796 73.755-156.643 67.698-186.805 67.698" stroke="url(#4wukw2xbsc)" stroke-width="1.274"/><path d="M849.934 80.564s173.256-2.85 234.576 58.433c61.31 61.285 17.82 298.069-22.46 305.71-40.29 7.641-211.403 6.414-211.403 6.414" stroke="#853BCE" stroke-width="1.274"/><path d="M850.5 112.631c77.297 0 111.505 1.335 180.55 6.592 4.27.325 8 3.023 9.65 6.979l12.67 30.391c1.17 2.816-.9 5.921-3.95 5.921H850.5" stroke="#853BCE" stroke-width="1.274"/><path d="M850.499 124.033h56.921c1.413 0 2.734.696 3.531 1.861l14.21 20.758c1.295 1.892-.06 4.46-2.354 4.46h-72.308m-.097 39.194h200.378c7.95 0 15.25 4.197 18.11 11.615 4.24 10.965 10 30.025 13.42 58.577 4.41 36.829 2.51 77.857 1.28 96.131-.38 5.5-4.97 9.692-10.49 9.692H850.402" stroke="#853BCE" stroke-width="1.274"/><path d="M850.497 210.258h196.753c4.45 0 8.16 3.407 8.53 7.837l10.23 122.094a5.697 5.697 0 0 1-5.68 6.177H850.497m-.049 56.013h.887c24.255 0 41.222-15.39 46.674-23.085 39.243-.781 124.341 1.327 189.891 12.048 3.41.558 5.51 4.025 4.38 7.289-9.06 26.271-19.86 44.071-30.43 46.077-40.29 7.641-211.402 6.414-211.402 6.414" stroke="#853BCE" stroke-width="1.274"/><path d="M850.306 246.601h207.674l-2.39-28.506c-.37-4.43-4.08-7.837-8.53-7.837H850.306" stroke="#853BCE" stroke-width="1.274"/><path d="M850.501 210.258h34.936l-4.034 8.465a11.407 11.407 0 0 1-10.299 6.499h-20.603m120.098 172.882 1.627 31.716a5.703 5.703 0 0 0 5.845 5.407l51.229-1.33c15.56-.405 27.96-13.127 27.96-28.683 0-1.216-.85-2.218-2-2.418-7.65-1.33-23.91-3.981-37.55-5.049-13.53-1.059-33.933-2.121-44.15-2.624a2.827 2.827 0 0 0-2.961 2.981Z" stroke="#853BCE" stroke-width="1.274"/><path opacity=".2" d="M850.501 702.671c31.805 0 162.179-.335 225.299-16.603" stroke="#853BCE" stroke-width="1.274"/><path d="M850.867 825.955s-136.893 4.988-188.94-3.563c-52.048-8.552-139.745-108.317-157.569-228.749-14.926-100.846 40.141-313.623 89.843-411.541" stroke="url(#yvisq3icfd)" stroke-width="1.274"/><path d="M850.252 466.085s-170.401.713-218.884.713c-48.484 0-99.46 75.18-82.35 177.084C566.13 745.785 680.47 822.034 706.494 825.241c26.024 3.207 144.022.713 144.022.713" stroke="url(#qdmidc1gwe)" stroke-width="1.274"/><path d="M850.432 522.738H666.565c-24.974 0-46.461 17.509-48.708 42.368-4.8 53.125-4.139 143.266 45.771 193.15 73.794 73.755 156.642 67.698 186.804 67.698" stroke="url(#d9bqjlhbaf)" stroke-width="1.274"/><path d="M851.083 80.564s-173.256-2.85-234.572 58.433c-61.315 61.285-17.823 298.069 22.46 305.71 40.283 7.641 211.399 6.414 211.399 6.414" stroke="#853BCE" stroke-width="1.274"/><path d="M850.516 112.631c-77.297 0-111.505 1.335-180.547 6.592a11.397 11.397 0 0 0-9.654 6.979l-12.669 30.391c-1.175 2.816.896 5.921 3.948 5.921h198.922" stroke="#853BCE" stroke-width="1.274"/><path d="M850.516 124.033h-56.921a4.28 4.28 0 0 0-3.531 1.861l-14.209 20.758c-1.296 1.892.06 4.46 2.353 4.46h72.308m.097 39.194H650.237c-7.954 0-15.256 4.197-18.117 11.615-4.231 10.965-9.993 30.025-13.415 58.577-4.413 36.829-2.509 77.857-1.276 96.131.372 5.5 4.966 9.692 10.481 9.692h222.703" stroke="#853BCE" stroke-width="1.274"/><path d="M850.516 210.258H653.76a8.553 8.553 0 0 0-8.526 7.837l-10.233 122.094a5.702 5.702 0 0 0 5.684 6.177h209.831m.05 56.013h-.888c-24.255 0-41.222-15.39-46.674-23.085-39.242-.781-124.338 1.327-189.895 12.048-3.409.558-5.504 4.025-4.379 7.289 9.064 26.271 19.861 44.071 30.437 46.077 40.283 7.641 211.399 6.414 211.399 6.414" stroke="#853BCE" stroke-width="1.274"/><path d="M850.709 246.601H643.037l2.389-28.506a8.553 8.553 0 0 1 8.526-7.837h196.757" stroke="#853BCE" stroke-width="1.274"/><path d="M850.516 210.258H815.58l4.034 8.465a11.407 11.407 0 0 0 10.299 6.499h20.603M730.399 398.104l-1.627 31.716a5.703 5.703 0 0 1-5.845 5.407l-51.232-1.33c-15.559-.405-27.962-13.127-27.962-28.683a2.43 2.43 0 0 1 2.004-2.418c7.651-1.33 23.907-3.981 37.552-5.049 13.525-1.059 33.932-2.121 44.149-2.624a2.827 2.827 0 0 1 2.961 2.981Z" stroke="#853BCE" stroke-width="1.274"/><path opacity=".2" d="M850.516 702.671c-31.805 0-162.176-.335-225.302-16.603" stroke="#853BCE" stroke-width="1.274"/><ellipse opacity=".45" cx="1264.29" cy="418.63" rx="421.207" ry="418.202" fill="url(#9amn2fo98g)"/><ellipse opacity=".1" cx="1018.09" cy="418.63" rx="118.65" ry="117.803" fill="#FFA9F1"/><ellipse opacity=".1" cx="685.873" cy="418.63" rx="118.65" ry="117.803" fill="#FFA9F1"/><ellipse opacity=".45" cx="421.878" cy="418.63" rx="421.207" ry="418.202" fill="url(#rwaad335th)"/></g><defs><linearGradient id="dyyj986zna" x1="1024.65" y1="182.102" x2="1024.65" y2="827.401" gradientUnits="userSpaceOnUse"><stop stop-color="#853BCE"/><stop offset=".897" stop-color="#853BCE" stop-opacity="0"/></linearGradient><linearGradient id="o9wfm5edeb" x1="1002.94" y1="466.085" x2="1002.94" y2="826.878" gradientUnits="userSpaceOnUse"><stop stop-color="#853BCE"/><stop offset=".897" stop-color="#853BCE" stop-opacity="0"/></linearGradient><linearGradient id="4wukw2xbsc" x1="967.828" y1="522.738" x2="967.828" y2="826.074" gradientUnits="userSpaceOnUse"><stop stop-color="#853BCE"/><stop offset=".897" stop-color="#853BCE" stop-opacity="0"/></linearGradient><linearGradient id="yvisq3icfd" x1="676.369" y1="182.102" x2="676.369" y2="827.401" gradientUnits="userSpaceOnUse"><stop stop-color="#853BCE"/><stop offset=".897" stop-color="#853BCE" stop-opacity="0"/></linearGradient><linearGradient id="qdmidc1gwe" x1="698.077" y1="466.085" x2="698.077" y2="826.878" gradientUnits="userSpaceOnUse"><stop stop-color="#853BCE"/><stop offset=".897" stop-color="#853BCE" stop-opacity="0"/></linearGradient><linearGradient id="d9bqjlhbaf" x1="733.188" y1="522.738" x2="733.188" y2="826.074" gradientUnits="userSpaceOnUse"><stop stop-color="#853BCE"/><stop offset=".897" stop-color="#853BCE" stop-opacity="0"/></linearGradient><radialGradient id="9amn2fo98g" cx="0" cy="0" r="1" gradientUnits="userSpaceOnUse" gradientTransform="scale(421.207 418.202) rotate(90 1 2.001)"><stop stop-color="#D754D1"/><stop offset="1" stop-color="#E759E1" stop-opacity="0"/></radialGradient><radialGradient id="rwaad335th" cx="0" cy="0" r="1" gradientUnits="userSpaceOnUse" gradientTransform="scale(421.207 418.202) rotate(90 0 1.001)"><stop stop-color="#D754D1"/><stop offset="1" stop-color="#E759E1" stop-opacity="0"/></radialGradient></defs></svg>